<svg xmlns="http://www.w3.org/2000/svg" version="1.1" xmlns:xlink="http://www.w3.org/1999/xlink" xmlns:svgjs="http://svgjs.com/svgjs" width="593.11536" height="193.49118"><svg viewBox="0 0 593.11536 193.49118" xmlns="http://www.w3.org/2000/svg">
 <g transform="translate(-73.761 -434.65)">
  <path d="m664.88 557.4-0.20025 40.204-382.56 28.544-206.35-129.56 0.20025-40.204 206.35 126.03 382.56-25.009z" fill="#784421" stroke="#000" stroke-linecap="round" stroke-linejoin="round" stroke-width="4"></path>
  <path d="m75.961 456.38 332.67-19.727 256.24 120.74-382.56 25.009-206.35-126.03z" fill="#784421" stroke="#000" stroke-linecap="round" stroke-linejoin="round" stroke-width="4"></path>
  <path d="m664.88 557.4-0.20025 40.204-382.56 28.544 0.20026-43.739 382.56-25.009z" fill="#502d16" stroke="#000" stroke-linecap="round" stroke-linejoin="round" stroke-width="4"></path>
  <path d="m133.76 468.79 27.499 15.5 243.38-17.784 149.71 72.081 26.288-1.7185-175.61-87.326-271.26 19.248z" fill="#502d16" stroke="#000" stroke-linecap="round" stroke-linejoin="round" stroke-width="4"></path>
  <path d="m404.64 466.51 149.71 72.081 26.288-1.7185-175.61-87.326-0.39105 16.964z" fill="#784421" stroke="#000" stroke-linecap="round" stroke-linejoin="round" stroke-width="4"></path>
  <path d="m404.62 466.5c-22.368 1.6431-44.646-7.563-67.742-3.7348s-29.308 10.835-57.246 12.877c-28.435 2.0778-73.178-12.004-118.36 8.6394l128.41 72.406 290.94-19.812-26.281 1.7188s-72.013-50.61-97.425-55.024c-25.202-4.3773-52.293-17.07-52.293-17.07z" fill="#fd5" stroke="#000" stroke-linecap="round" stroke-linejoin="round" stroke-width="4"></path>
  <path d="m357.11 505.28c8.25 3.5 35-6.5 48-6.5s21-10 8-15.5-36-7-45.5 2.5-18.75 16-10.5 19.5z" fill-opacity=".09804" fill-rule="evenodd"></path>
  <path d="m296.74 507.76c-20.933 3.419-25.16 18.657-36.633 16.715s-29.157-14.436-20.186-18.614 30.99 3.4449 43.361-7.5977 34.39 6.0782 13.457 9.4971z" fill-opacity=".09804" fill-rule="evenodd"></path>
  <path d="m479.16 510.53c-11.616 0.07459-22.188 1.5938-26.781 5.75-10.5 9.5-19 24-40 22.5s-44.5-10-44 5c0.09526 2.8579 2.8508 5.1881 7.2812 7.0625l113.47-7.75c24.469-7.004 50.531-14.576 47.875-16.281l-0.125-0.09375-0.03125-0.03125c-5.3304-3.5364-11.596-7.6043-18.219-11.781h-0.03125c-7.8766-2.1697-24.519-4.4708-39.438-4.375z" fill-opacity=".09804" fill-rule="evenodd"></path>
  <g transform="translate(26.153 -23.274)" fill-rule="evenodd">
   <path transform="translate(-26.153 23.274)" d="m322.5 507.11c11 4.5 25.25 3.5 27-1.25s16.25-2 16.25-2l3.5-7.75s-16.75 3.75-21-0.5-19.75-1.75-19.75-1.75l-6 13.25z" fill-opacity=".39216"></path>
   <path d="m318.31 481.43c-5.2496-0.54215-13.011 18.073-16.035 21.668-2.7965 3.3254-7.1808-7.8884-16.583 2.9443-9.6342 11.1-6.4865 13.686 1.48 20.94 3.3463 3.0447 17.659 3.5563 21.483-1.0089 9.7938-11.283-2.1157-13.724 0.58248-16.833s19.416-13.986 19.198-18.924-4.8748-8.2456-10.124-8.7877z" fill="#f0f" stroke="#000" stroke-linejoin="round" stroke-width="4"></path>
   <path d="m293.45 505.42c-3.3588 0.7955-10.076 9.7227-9.7227 11.844s5.9254-1.0185 7.955-3.8891c2.112-2.9872 5.1265-8.7504 1.7678-7.955z" fill-opacity=".39216"></path>
   <path d="m309.08 504.62c1.2338 0.7045 15.764-13.486 15.91-14.849 0.14645-1.3713-0.4971-2.5259-1.9016-2.2034-1.2861 0.29527-15.192 16.377-14.008 17.053z" fill-opacity=".39216"></path>
  </g>
  <g transform="translate(10.475 -1.2929)">
   <path d="m353.59 533.33c9-2.75 20-4.25 26.75 0.25 5.5388 3.6925 17.355 0.18498 17.5-9.25 0.10884-7.4574-14.5-9.25-14.5-9.25l-29.75 18.25z" fill-opacity=".39216" fill-rule="evenodd"></path>
   <path d="m350.09 494.28c-1.106 4.1276-3.1195 24.816-4.0087 28.135s3.7984 12.089 10.978 6.8126c8.6061-6.3248 21.566-1.8932 22.455-5.212s7.2383-15.488 8.3443-19.615-6.4566-9.7444-16.881-12.538-19.782-1.7102-20.888 2.4174z" fill="#00d400" stroke="#000" stroke-linecap="round" stroke-linejoin="round" stroke-width="4.9095"></path>
   <path transform="matrix(-.82509 -.22108 -.22209 .82884 784.95 184.96)" d="m398.01 479.36a22.888 9.0216 0 1 1 -45.775 0 22.888 9.0216 0 1 1 45.775 0z" fill="#008000" stroke="#000" stroke-linecap="round" stroke-linejoin="round" stroke-width="4.6722"></path>
   <path d="m380.07 511.25c-1.7199-0.60196-8.8388-1.2374-9.7227 5.1265-0.90797 6.5374 3.7868 5.9602 5.8336 4.9497 2.112-1.0427 5.6569-9.4576 3.8891-10.076z" fill-opacity=".39216" fill-rule="evenodd"></path>
   <path d="m366.63 494.81c-1.8585-2.1119-11.113-1.593-12.728 0.17678-1.8228 1.9974 8.7366 8.0815 10.783 7.0711 2.112-1.0427 3.8891-5.0381 1.9446-7.2478z" fill-opacity=".39216" fill-rule="evenodd"></path>
  </g>
 </g>
</svg><style>@media (prefers-color-scheme: light) { :root { filter: none; } }
</style></svg>